<!-- ABAC authorization flow: Subject attempts action -> PEP builds subscription -> PDP retrieves policies (PRP) and fetches attributes (PIP) -> PDP returns decision -> PEP enforces (deny or execute + deliver result) -->
<svg xmlns="http://www.w3.org/2000/svg" viewBox="0 0 900 340" font-family="Inter, -apple-system, sans-serif">
  <defs>
    <marker id="ah" viewBox="0 0 10 10" refX="9" refY="5" markerWidth="6" markerHeight="6" orient="auto">
      <path d="M 0 0 L 10 5 L 0 10 z" fill="#028392"/>
    </marker>
    <marker id="ah-accent" viewBox="0 0 10 10" refX="9" refY="5" markerWidth="6" markerHeight="6" orient="auto">
      <path d="M 0 0 L 10 5 L 0 10 z" fill="#7bbdbc"/>
    </marker>
  </defs>

  <rect width="900" height="340" rx="8" fill="#f8fafc"/>

  <!-- Subject -->
  <rect x="20" y="110" width="120" height="60" rx="6" fill="#e2e8f0" stroke="#7bbdbc" stroke-width="1"/>
  <text x="80" y="137" text-anchor="middle" fill="#1a1a2e" font-size="14" font-weight="600">Subject</text>
  <text x="80" y="155" text-anchor="middle" fill="#4a5568" font-size="11">User / System</text>

  <!-- PEP -->
  <rect x="230" y="110" width="160" height="60" rx="6" fill="#028392"/>
  <text x="310" y="137" text-anchor="middle" fill="white" font-size="14" font-weight="600">PEP</text>
  <text x="310" y="155" text-anchor="middle" fill="#c4e8e8" font-size="11">Enforcement Point</text>

  <!-- PDP -->
  <rect x="500" y="110" width="160" height="60" rx="6" fill="#028392"/>
  <text x="580" y="137" text-anchor="middle" fill="white" font-size="14" font-weight="600">PDP</text>
  <text x="580" y="155" text-anchor="middle" fill="#c4e8e8" font-size="11">Decision Point</text>

  <!-- PRP -->
  <rect x="740" y="30" width="140" height="50" rx="6" fill="#e2e8f0" stroke="#7bbdbc" stroke-width="1"/>
  <text x="810" y="53" text-anchor="middle" fill="#1a1a2e" font-size="13" font-weight="500">PRP</text>
  <text x="810" y="69" text-anchor="middle" fill="#4a5568" font-size="11">Policy Retrieval</text>

  <!-- PIP -->
  <rect x="740" y="190" width="140" height="50" rx="6" fill="#e2e8f0" stroke="#7bbdbc" stroke-width="1"/>
  <text x="810" y="213" text-anchor="middle" fill="#1a1a2e" font-size="13" font-weight="500">PIP</text>
  <text x="810" y="229" text-anchor="middle" fill="#4a5568" font-size="11">Information Point</text>

  <!-- RAP -->
  <rect x="230" y="265" width="160" height="50" rx="6" fill="#f0fdf4" stroke="#7bbdbc" stroke-width="1"/>
  <text x="310" y="288" text-anchor="middle" fill="#1a1a2e" font-size="13" font-weight="500">RAP</text>
  <text x="310" y="304" text-anchor="middle" fill="#4a5568" font-size="11">Resource Access</text>

  <!-- 1. Subject -> PEP (horizontal) -->
  <line x1="140" y1="130" x2="225" y2="130" stroke="#028392" stroke-width="2" marker-end="url(#ah)"/>
  <text x="182" y="122" text-anchor="middle" fill="#4a5568" font-size="10">1. attempt</text>

  <!-- 2. PEP -> PDP (horizontal) -->
  <line x1="390" y1="130" x2="495" y2="130" stroke="#028392" stroke-width="2" marker-end="url(#ah)"/>
  <text x="442" y="122" text-anchor="middle" fill="#4a5568" font-size="10">2. subscribe</text>

  <!-- 3. PDP -> PRP (right then up, L-shape) -->
  <path d="M 660 125 H 700 V 55 H 735" stroke="#7bbdbc" stroke-width="1.5" fill="none" marker-end="url(#ah-accent)"/>
  <text x="720" y="90" text-anchor="start" fill="#929699" font-size="10">3. policies</text>

  <!-- 4. PDP -> PIP (right then down, L-shape) -->
  <path d="M 660 155 H 700 V 215 H 735" stroke="#7bbdbc" stroke-width="1.5" fill="none" marker-end="url(#ah-accent)"/>
  <text x="720" y="192" text-anchor="start" fill="#929699" font-size="10">4. attributes</text>

  <!-- 5. PDP -> PEP (horizontal, below forward line) -->
  <line x1="495" y1="155" x2="395" y2="155" stroke="#028392" stroke-width="2" marker-end="url(#ah)"/>
  <text x="445" y="172" text-anchor="middle" fill="#4a5568" font-size="10">5. decision</text>

  <!-- 6a. PEP -> Subject (horizontal, below forward line) -->
  <line x1="225" y1="155" x2="145" y2="155" stroke="#028392" stroke-width="2" marker-end="url(#ah)"/>
  <text x="185" y="172" text-anchor="middle" fill="#4a5568" font-size="10">6a. deny</text>

  <!-- 6b. PEP -> RAP (vertical down) -->
  <line x1="310" y1="170" x2="310" y2="260" stroke="#7bbdbc" stroke-width="1.5" marker-end="url(#ah-accent)"/>
  <text x="340" y="220" text-anchor="start" fill="#929699" font-size="10">6b. execute</text>

  <!-- 7. RAP -> Subject (down then left then up, U-shape) -->
  <path d="M 230 290 H 80 V 175" stroke="#7bbdbc" stroke-width="1.5" fill="none" marker-end="url(#ah-accent)"/>
  <text x="155" y="250" text-anchor="middle" fill="#929699" font-size="10">7. result</text>
</svg>
