<!-- NestJS streaming enforcement sequence: PDP sends PERMIT (data events flow in loop), then DENY. Three enforcement strategies diverge: @EnforceTillDenied (ACCESS_DENIED, stream closed), @EnforceDropWhileDenied (events dropped, resumes on re-PERMIT), @EnforceRecoverableIfDenied (ACCESS_SUSPENDED, ACCESS_RESTORED on re-PERMIT) -->
<svg xmlns="http://www.w3.org/2000/svg" viewBox="0 0 420 1080" font-family="Inter, -apple-system, sans-serif">
  <defs>
    <marker id="ah" viewBox="0 0 10 10" refX="9" refY="5" markerWidth="6" markerHeight="6" orient="auto">
      <path d="M 0 0 L 10 5 L 0 10 z" fill="#028392"/>
    </marker>
    <marker id="ah-self" viewBox="0 0 10 10" refX="9" refY="5" markerWidth="5" markerHeight="5" orient="auto">
      <path d="M 0 0 L 10 5 L 0 10 z" fill="#7bbdbc"/>
    </marker>
  </defs>

  <rect width="420" height="1080" rx="8" fill="#f8fafc"/>

  <!-- Actor boxes: top -->
  <rect x="20" y="10" width="110" height="40" rx="6" fill="#028392"/>
  <text x="75" y="35" text-anchor="middle" fill="white" font-size="14" font-weight="600">PDP</text>

  <rect x="210" y="10" width="110" height="40" rx="6" fill="#028392"/>
  <text x="265" y="35" text-anchor="middle" fill="white" font-size="14" font-weight="600">Stream</text>

  <!-- Lifelines -->
  <line x1="75" y1="50" x2="75" y2="1050" stroke="#7bbdbc" stroke-width="1" stroke-dasharray="4 3"/>
  <line x1="265" y1="50" x2="265" y2="1050" stroke="#7bbdbc" stroke-width="1" stroke-dasharray="4 3"/>

  <!-- ========== PERMIT PHASE ========== -->
  <rect x="30" y="60" width="340" height="235" rx="4" fill="#f0fdf4" stroke="#7bbdbc" stroke-width="1"/>

  <!-- Phase label -->
  <rect x="30" y="60" width="100" height="22" rx="4" fill="#7bbdbc"/>
  <text x="80" y="75" text-anchor="middle" fill="white" font-size="10" font-weight="600">PERMIT phase</text>

  <!-- PDP -> Stream: PERMIT -->
  <line x1="75" y1="110" x2="260" y2="110" stroke="#028392" stroke-width="2" marker-end="url(#ah)"/>
  <text x="167" y="102" text-anchor="middle" fill="#028392" font-size="12" font-weight="600">PERMIT</text>

  <!-- Loop box -->
  <rect x="195" y="135" width="160" height="145" rx="4" fill="none" stroke="#7bbdbc" stroke-width="1" stroke-dasharray="4 3"/>
  <rect x="195" y="135" width="50" height="18" rx="3" fill="#e2e8f0" stroke="#7bbdbc" stroke-width="1"/>
  <text x="220" y="148" text-anchor="middle" fill="#4a5568" font-size="9" font-weight="500">loop</text>
  <text x="310" y="165" text-anchor="middle" fill="#929699" font-size="10">Every 2s</text>

  <!-- Self-arrow: data event -->
  <path d="M 265 200 H 330 V 240 H 270" stroke="#7bbdbc" stroke-width="1.5" fill="none" marker-end="url(#ah-self)"/>
  <text x="310" y="215" text-anchor="middle" fill="#4a5568" font-size="11">data event</text>

  <!-- ========== DENY PHASE ========== -->
  <rect x="30" y="310" width="340" height="80" rx="4" fill="#fff5f5" stroke="#e53e3e" stroke-width="1"/>

  <rect x="30" y="310" width="90" height="22" rx="4" fill="#e53e3e"/>
  <text x="75" y="325" text-anchor="middle" fill="white" font-size="10" font-weight="600">DENY phase</text>

  <!-- PDP -> Stream: DENY -->
  <line x1="75" y1="360" x2="260" y2="360" stroke="#e53e3e" stroke-width="2" marker-end="url(#ah)"/>
  <text x="167" y="352" text-anchor="middle" fill="#e53e3e" font-size="12" font-weight="600">DENY</text>

  <!-- ========== ALT BLOCK ========== -->
  <rect x="30" y="410" width="365" height="620" rx="4" fill="none" stroke="#7bbdbc" stroke-width="1.5"/>
  <rect x="30" y="410" width="40" height="18" rx="3" fill="#e2e8f0" stroke="#7bbdbc" stroke-width="1"/>
  <text x="50" y="423" text-anchor="middle" fill="#4a5568" font-size="9" font-weight="500">alt</text>

  <!-- ===== Strategy 1: @EnforceTillDenied ===== -->
  <text x="230" y="445" text-anchor="middle" fill="#1a1a2e" font-size="12" font-weight="600">@EnforceTillDenied</text>

  <!-- Self-arrow: ACCESS_DENIED -->
  <path d="M 265 470 H 345 V 510 H 270" stroke="#e53e3e" stroke-width="1.5" fill="none" marker-end="url(#ah-self)"/>
  <text x="320" y="485" text-anchor="middle" fill="#e53e3e" font-size="10">ACCESS_DENIED</text>

  <!-- Note: Stream closed -->
  <rect x="195" y="525" width="180" height="28" rx="4" fill="#e2e8f0" stroke="#7bbdbc" stroke-width="1"/>
  <text x="285" y="543" text-anchor="middle" fill="#4a5568" font-size="10">Stream closed permanently</text>

  <!-- ===== Divider ===== -->
  <line x1="30" y1="575" x2="395" y2="575" stroke="#7bbdbc" stroke-width="1" stroke-dasharray="4 3"/>

  <!-- ===== Strategy 2: @EnforceDropWhileDenied ===== -->
  <text x="230" y="600" text-anchor="middle" fill="#1a1a2e" font-size="12" font-weight="600">@EnforceDropWhileDenied</text>

  <!-- Note: Events silently dropped -->
  <rect x="195" y="615" width="180" height="28" rx="4" fill="#e2e8f0" stroke="#7bbdbc" stroke-width="1"/>
  <text x="285" y="633" text-anchor="middle" fill="#4a5568" font-size="10">Events silently dropped</text>

  <!-- Re-PERMIT sub-rect -->
  <rect x="50" y="655" width="320" height="85" rx="4" fill="#f0fdf4" stroke="#7bbdbc" stroke-width="1"/>

  <!-- PDP -> Stream: PERMIT -->
  <line x1="75" y1="685" x2="260" y2="685" stroke="#028392" stroke-width="2" marker-end="url(#ah)"/>
  <text x="167" y="677" text-anchor="middle" fill="#028392" font-size="11" font-weight="600">PERMIT</text>

  <!-- Note: Events resume -->
  <rect x="210" y="700" width="130" height="26" rx="4" fill="#e2e8f0" stroke="#7bbdbc" stroke-width="1"/>
  <text x="275" y="717" text-anchor="middle" fill="#4a5568" font-size="10">Events resume</text>

  <!-- ===== Divider ===== -->
  <line x1="30" y1="760" x2="395" y2="760" stroke="#7bbdbc" stroke-width="1" stroke-dasharray="4 3"/>

  <!-- ===== Strategy 3: @EnforceRecoverableIfDenied ===== -->
  <text x="230" y="785" text-anchor="middle" fill="#1a1a2e" font-size="12" font-weight="600">@EnforceRecoverableIfDenied</text>

  <!-- Self-arrow: ACCESS_SUSPENDED -->
  <path d="M 265 805 H 355 V 845 H 270" stroke="#e53e3e" stroke-width="1.5" fill="none" marker-end="url(#ah-self)"/>
  <text x="330" y="820" text-anchor="middle" fill="#e53e3e" font-size="10">ACCESS_SUSPENDED</text>

  <!-- Re-PERMIT sub-rect -->
  <rect x="50" y="865" width="320" height="150" rx="4" fill="#f0fdf4" stroke="#7bbdbc" stroke-width="1"/>

  <!-- PDP -> Stream: PERMIT -->
  <line x1="75" y1="900" x2="260" y2="900" stroke="#028392" stroke-width="2" marker-end="url(#ah)"/>
  <text x="167" y="892" text-anchor="middle" fill="#028392" font-size="11" font-weight="600">PERMIT</text>

  <!-- Self-arrow: ACCESS_RESTORED -->
  <path d="M 265 925 H 345 V 965 H 270" stroke="#028392" stroke-width="1.5" fill="none" marker-end="url(#ah-self)"/>
  <text x="325" y="940" text-anchor="middle" fill="#028392" font-size="10">ACCESS_RESTORED</text>

  <!-- Note: Events resume -->
  <rect x="210" y="975" width="130" height="26" rx="4" fill="#e2e8f0" stroke="#7bbdbc" stroke-width="1"/>
  <text x="275" y="992" text-anchor="middle" fill="#4a5568" font-size="10">Events resume</text>

  <!-- Actor boxes: bottom -->
  <rect x="20" y="1040" width="110" height="35" rx="6" fill="#028392"/>
  <text x="75" y="1062" text-anchor="middle" fill="white" font-size="13" font-weight="600">PDP</text>

  <rect x="210" y="1040" width="110" height="35" rx="6" fill="#028392"/>
  <text x="265" y="1062" text-anchor="middle" fill="white" font-size="13" font-weight="600">Stream</text>
</svg>
