<?xml version="1.0" encoding="UTF-8"?>
<svg id="Layer_1" data-name="Layer 1" xmlns="http://www.w3.org/2000/svg" viewBox="0 0 805 805">
  <defs>
    <style>
      .cls-1 {
        fill: #20232a;
      }

      .cls-2 {
        fill: #799cc1;
      }

      .cls-3 {
        fill: #8f9cc1;
      }

      .cls-4 {
        fill: #7bbdbc;
      }

      .cls-5 {
        fill: none;
      }

      .cls-6 {
        fill: #999;
      }

      .cls-7 {
        fill: #a7adbb;
      }

      .cls-8 {
        fill: #028392;
      }
    </style>
  </defs>
  <rect class="cls-1" width="805" height="805"/>
  <g>
    <path class="cls-5" d="m479.79,371.95c9.36,6.05,22.8-4.35,19.52-14.9-1.16-10.36-16.48-14.29-22.91-6.62-6.32,5.78-4.93,18.1,3.39,21.53Z"/>
    <path class="cls-5" d="m479.79,371.95c9.36,6.05,22.8-4.35,19.52-14.9-1.16-10.36-16.48-14.29-22.91-6.62-6.32,5.78-4.93,18.1,3.39,21.53Z"/>
    <path class="cls-5" d="m216.73,344.84c-5.15,3.88-10.6,7.72-15.64,11.97,2.89-3.24,8.93-7.65,15.62-12.04,0,.01.01.04.01.07Z"/>
    <path class="cls-5" d="m479.79,371.95c9.36,6.05,22.8-4.35,19.52-14.9-1.16-10.36-16.48-14.29-22.91-6.62-6.32,5.78-4.93,18.1,3.39,21.53Z"/>
    <path class="cls-5" d="m369.61,467.45c18.6-3.89,7.82-34.35-8.9-25.3-15.37,5.2-6.66,30.35,8.9,25.3Z"/>
    <path d="m201.1,356.81c-.09.09-.18.19-.25.28-.63.73-1.24,1.23-1.82,1.5.69-.6,1.37-1.2,2.07-1.78Z"/>
    <path class="cls-5" d="m369.62,467.45c18.6-3.89,7.82-34.35-8.9-25.3-15.37,5.2-6.66,30.35,8.9,25.3Z"/>
    <path class="cls-5" d="m360.72,442.15c-15.37,5.2-6.66,30.35,8.9,25.3,18.6-3.89,7.82-34.35-8.9-25.3Z"/>
    <path class="cls-5" d="m369.62,467.45c18.6-3.89,7.82-34.35-8.9-25.3-15.37,5.2-6.66,30.35,8.9,25.3Z"/>
    <path class="cls-5" d="m479.79,371.95c9.36,6.05,22.8-4.35,19.52-14.9-1.16-10.36-16.48-14.29-22.91-6.62-6.32,5.78-4.93,18.1,3.39,21.53Z"/>
    <path class="cls-5" d="m342.31,317.82c2.68,1.3,5.53,1.19,8.11.15-2.58,1.03-5.42,1.14-8.11-.15Z"/>
    <path class="cls-5" d="m351.42,317.52s-.08.04-.12.06c.04-.02.08-.04.12-.06Z"/>
    <path class="cls-5" d="m332.59,301.74c.07-.33.16-.66.26-.98-.1.32-.18.65-.26.98Z"/>
    <path class="cls-5" d="m340.36,317.07c.37.12.75.22,1.15.31h0c-.39-.09-.78-.19-1.14-.31Z"/>
    <path class="cls-5" d="m358.52,300.01c.31,1.01.48,2.09.47,3.24,1.06,5.13-1.89,10.6-6.2,13.48,4.31-2.88,7.26-8.34,6.2-13.47,0-1.15-.16-2.23-.47-3.24Z"/>
    <path class="cls-5" d="m341.5,292.23c2.68-.93,5.63-.92,8.35-.15-2.71-.77-5.67-.79-8.35.15-4.54,1.1-7.45,4.51-8.65,8.5,1.2-3.99,4.11-7.4,8.64-8.5Z"/>
    <path class="cls-5" d="m350.91,317.76c-.13.06-.25.12-.38.17.13-.05.25-.12.38-.17Z"/>
    <path class="cls-5" d="m358.98,303.24c0-1.15-.16-2.23-.47-3.24-1.21-3.99-4.67-6.79-8.67-7.93-2.71-.77-5.67-.78-8.35.15-4.53,1.1-7.44,4.51-8.64,8.5,0,0,0,.02,0,.02-.1.32-.18.65-.26.98-1.37,6.11,1.12,13.18,7.76,15.33.37.12.75.22,1.14.31h0s0,0,0,0c.27.16.54.31.81.44,2.68,1.3,5.53,1.19,8.11.15.04-.01.07-.03.11-.04.13-.05.25-.12.38-.17.13-.06.26-.11.39-.18.04-.02.08-.04.12-.06.47-.24.93-.5,1.37-.8,4.31-2.88,7.26-8.34,6.2-13.48Z"/>
    <path class="cls-5" d="m369.62,467.45c18.6-3.89,7.82-34.35-8.9-25.3-15.37,5.2-6.66,30.35,8.9,25.3Z"/>
    <path class="cls-5" d="m303.38,247.35c.06-1.43.13-2.89.21-4.35-.06.02-.12.04-.18.06-.02,1.43-.03,2.86-.03,4.3Z"/>
    <path class="cls-5" d="m358.52,300.01c-1.21-3.99-4.67-6.79-8.67-7.93-2.71-.77-5.67-.79-8.35.15-4.54,1.1-7.45,4.51-8.65,8.5,0,0,0,.02,0,.02-.1.32-.18.65-.26.98-1.37,6.11,1.12,13.18,7.76,15.33.37.12.75.22,1.15.31.27.16.54.31.81.44,2.68,1.3,5.53,1.19,8.11.15.04-.01.07-.03.11-.04.13-.05.25-.12.38-.17.13-.06.26-.11.39-.18.04-.02.08-.04.12-.06.47-.24.93-.5,1.37-.8,4.31-2.88,7.26-8.34,6.2-13.47,0-1.15-.16-2.23-.47-3.24Z"/>
    <path class="cls-5" d="m358.52,300.01c-1.21-3.99-4.67-6.79-8.67-7.93-2.71-.77-5.67-.79-8.35.15-4.54,1.1-7.45,4.51-8.65,8.5,0,0,0,.02,0,.02-.1.32-.18.65-.26.98-1.37,6.11,1.12,13.18,7.76,15.33.37.12.75.22,1.15.31.27.16.54.31.81.44,2.68,1.3,5.53,1.19,8.11.15.04-.01.07-.03.11-.04.13-.05.25-.12.38-.17.13-.06.26-.11.39-.18.04-.02.08-.04.12-.06.47-.24.93-.5,1.37-.8,4.31-2.88,7.26-8.34,6.2-13.47,0-1.15-.16-2.23-.47-3.24Z"/>
    <path class="cls-5" d="m476.4,350.42c-6.32,5.78-4.93,18.1,3.39,21.53,9.36,6.05,22.8-4.35,19.52-14.9-1.16-10.36-16.48-14.29-22.91-6.62Z"/>
    <path class="cls-8" d="m303.38,247.35c0,1.08.01,2.15.03,3.23l-.41.12.39-5.45c0,.7-.01,1.4-.01,2.1Z"/>
    <path class="cls-8" d="m303.55,243.01l.23-3.12c-.06,1.04-.13,2.07-.19,3.11-.01,0-.03.01-.04.01Z"/>
    <path class="cls-8" d="m305.57,218.31l.07-.03c-.03.29-.15,1.14-.29,2.39l.22-2.36Z"/>
    <path class="cls-8" d="m306.28,212.85l.2-.04c-.25,1.37-.44,2.73-.58,4.09l.38-4.04Z"/>
    <path class="cls-3" d="m381.09,431.29c-7.31-6.2-19.75-.82-25.14-9.52-34.41-49.9-52.04-110.41-52.54-170.85v-.35c-.01-1.08-.03-2.15-.03-3.23,0-.7.01-1.4.01-2.1s0-1.46.01-2.19c.04-.01.1-.03.15-.04.01,0,.03-.01.04-.01.06-1.04.13-2.07.19-3.11.07-1.18.15-2.36.23-3.53.03-.5.06-.98.1-1.47.01-.18.03-.36.04-.54.04-.6.09-1.2.15-1.78.16-2.04.32-4.01.48-5.85.03-.42.06-.83.1-1.24,0-.03,0-.06.01-.09.07-.85.15-1.66.22-2.44.07-.8.16-1.56.22-2.26.15-1.26.26-2.1.29-2.39.03-.07.03-.12.03-.12l.1-.04c.03-.26.06-.53.09-.8.01-.13.03-.28.04-.42.15-1.36.34-2.72.58-4.09,1.94-11.36,6.98-22.53,18.69-26.6,12.26-2.77,21.75,4.93,29.85,13.43.92.96,1.81,1.93,2.69,2.89h.01c.54-.04,1.12-.12,1.77-.19.06,0,.1-.01.16-.01.34-.04.7-.07,1.07-.12.47-.04.95-.1,1.46-.15.64-.07,1.31-.13,2.01-.19.51-.06,1.05-.1,1.59-.15.48-.03.96-.07,1.46-.12.48-.04.99-.09,1.52-.13.82-.06,1.66-.12,2.54-.19.44-.03.88-.06,1.33-.09,1.96-.13,4.04-.25,6.25-.35.74-.03,1.52-.07,2.29-.1-.04-.07-.1-.16-.16-.23-9.88-13.45-21.18-26.37-36.93-32.72-19.49-7.55-42.44,3.93-51.45,21.99-4.1,8.93-5.49,18.61-6.69,28.28-.03.28-.07.67-.13,1.15-.01.16-.03.32-.06.5,0,.03,0,.04-.01.07-.01.13-.03.28-.04.42v.04c-.01.16-.03.34-.06.51-.12,1.18-.28,2.67-.44,4.39-.04.39-.07.8-.12,1.23-.07.77-.15,1.59-.22,2.44-.04.53-.09,1.07-.13,1.61-.01.15-.01.31-.03.45-.03.35-.06.72-.09,1.08-.12,1.61-.25,3.31-.35,5.09-.04.76-.09,1.53-.13,2.31-.06.8-.09,1.62-.13,2.44-.06,1.23-.12,2.48-.15,3.75-.03.36-.03.73-.04,1.09-.03.74-.04,1.49-.06,2.23-.03,1.04-.04,2.07-.06,3.11.23,16.29,1.4,32.58,3.94,48.69.38,2.47.8,4.92,1.26,7.37-.09.04-.16.07-.25.1.23,1.3.48,2.6.72,3.91,1.01,5.49,2.1,11.11,3.21,16.23.01-.01.04-.01.06-.03.6,2.38,1.21,4.74,1.87,7.11,10,36.63,26.12,71.56,48.07,102.57-2.96,9.2-6.93,19.72-1.27,28.8,7.47,16.01,31.08,20.64,43.56,7.81,13.12-11.23,11.12-34.5-3.78-43.27Zm-11.47,36.16c-15.56,5.04-24.26-20.1-8.89-25.3,16.72-9.05,27.49,21.4,8.89,25.3Z"/>
    <path class="cls-5" d="m476.4,350.42c-6.32,5.78-4.93,18.1,3.39,21.53,9.36,6.05,22.8-4.35,19.52-14.9-1.16-10.36-16.48-14.29-22.91-6.62Z"/>
    <path class="cls-5" d="m269.83,510.7c.09-.96.22-1.92.38-2.88-.16.96-.29,1.92-.38,2.88Z"/>
    <path class="cls-5" d="m272.26,499.48c-.27.86-.52,1.71-.76,2.58.24-.86.5-1.72.76-2.58h0Z"/>
    <path class="cls-5" d="m268.82,521.84c-.6-1.78-.95-3.6-1.12-5.46.16,1.86.52,3.69,1.12,5.46Z"/>
    <path class="cls-5" d="m269.72,512.13c-.05.95-.06,1.9-.03,2.84-.03-.94-.02-1.88.03-2.84Z"/>
    <path class="cls-5" d="m272.35,499.19c-.03.1-.06.2-.09.29h0c.03-.1.06-.2.09-.29Z"/>
    <polygon class="cls-5" points="560.2 421.7 560.2 421.7 560.2 421.7 560.2 421.7 560.2 421.7"/>
    <path class="cls-5" d="m358.52,300.01c-1.21-3.99-4.67-6.79-8.67-7.93-2.72-.77-5.66-.79-8.34.15-2.26.54-4.13,1.68-5.58,3.17l-.53.57c-.16.2-.32.41-.48.61-.31.41-.6.85-.85,1.3-.53.91-.93,1.87-1.23,2.86h0c-.1.34-.19.67-.26,1.01-1.02,4.53.1,9.61,3.46,12.79.47.44.96.85,1.52,1.21.83.55,1.77.99,2.79,1.33.32.1.64.19.99.26.06.01.1.03.16.04.26.16.53.31.8.44,2.69,1.3,5.53,1.18,8.1.16.04-.01.09-.03.12-.04.13-.06.25-.12.38-.18.13-.06.26-.12.39-.18.04-.03.07-.04.12-.07.47-.23.92-.5,1.37-.79,4.31-2.88,7.26-8.35,6.19-13.47.01-1.15-.16-2.23-.47-3.24Z"/>
    <path class="cls-5" d="m560.2,421.7h0s.03-.08.04-.11h0s-.03.07-.04.11Z"/>
    <polygon class="cls-5" points="560.2 421.7 560.2 421.7 560.2 421.7 560.2 421.7"/>
    <path class="cls-5" d="m560.2,421.7s.03-.08.04-.11h0s-.03.08-.04.11Z"/>
    <polygon class="cls-5" points="560.2 421.7 560.2 421.7 560.2 421.7 560.2 421.7"/>
    <path class="cls-5" d="m560.2,421.7h0s0,0,0,0c.01,0,.03,0,.04,0h0s-.03,0-.04,0Z"/>
    <path class="cls-5" d="m560.24,421.7h0c.31-.04.62-.09.93-.13-.31.04-.63.09-.93.13Z"/>
    <path class="cls-5" d="m560.2,421.7s.03,0,.04,0h0s-.03,0-.04,0Z"/>
    <path class="cls-5" d="m561.18,421.56c-.31.04-.63.09-.93.13h0c.32-.05.65-.09.98-.14-.02,0-.03,0-.05,0Z"/>
    <polygon class="cls-5" points="560.2 421.7 560.2 421.7 560.2 421.7 560.2 421.7"/>
    <path class="cls-5" d="m358.52,300.01c-1.21-3.99-4.67-6.79-8.67-7.93-2.72-.77-5.66-.79-8.34.15-2.26.54-4.13,1.68-5.58,3.17l-.53.57c-.16.2-.32.41-.48.61-.31.41-.6.85-.85,1.3-.53.91-.93,1.87-1.23,2.86h0c-.1.34-.19.67-.26,1.01-1.02,4.53.1,9.61,3.46,12.79.47.44.96.85,1.52,1.21.83.55,1.77.99,2.79,1.33.32.1.64.19.99.26.06.01.1.03.16.04.26.16.53.31.8.44,2.69,1.3,5.53,1.18,8.1.16.04-.01.09-.03.12-.04.13-.06.25-.12.38-.18.13-.06.26-.12.39-.18.04-.03.07-.04.12-.07.47-.23.92-.5,1.37-.79,4.31-2.88,7.26-8.35,6.19-13.47.01-1.15-.16-2.23-.47-3.24Z"/>
    <path class="cls-5" d="m581.46,368.17s0,0,.01.01c.17.13.34.26.51.4-.18-.14-.35-.27-.52-.41Z"/>
    <path class="cls-5" d="m578.84,366.13h0c.78.6,1.57,1.23,2.37,1.86.05.04.1.08.16.12-.85-.67-1.7-1.34-2.53-1.98Z"/>
    <path class="cls-5" d="m579.15,366.37l-.31-.23h0c.1.06.2.15.31.23Z"/>
    <path class="cls-5" d="m585.64,371.62c-.23-.2-.47-.39-.71-.59.37.32.74.63,1.11.95-.13-.11-.25-.24-.38-.35,0,0-.01-.01-.02-.02Z"/>
    <path class="cls-5" d="m582.27,368.84c-.26-.23-.54-.45-.8-.66.17.15.34.26.51.39.1.07.19.16.29.26Z"/>
    <path class="cls-5" d="m581.37,368.1c-.05-.04-.1-.08-.16-.12.09.07.17.13.26.2,0,0,0,0-.01-.01-.03-.02-.06-.05-.09-.07Z"/>
    <polygon class="cls-5" points="578.84 366.13 578.84 366.14 578.84 366.13 578.84 366.13"/>
    <path class="cls-7" d="m563.76,412.08c-.09.25-.17.5-.28.74l-1.07-.39-5.78-2.13.26-.72,5.8,2.1,1.07.39Z"/>
    <polygon class="cls-7" points="570.62 414.56 570.61 414.58 570.61 414.56 570.62 414.56"/>
    <path class="cls-7" d="m563.76,412.08c-.09.25-.18.5-.28.75.09-.25.18-.5.28-.75Z"/>
    <polygon class="cls-7" points="570.35 415.34 570.33 415.35 570.33 415.34 570.35 415.34"/>
    <path class="cls-7" d="m560.2,421.7s.03-.08.04-.12h0s-.03.08-.04.12Z"/>
    <path class="cls-7" d="m576.23,375.1c-.08.26-.16.52-.24.79.08-.26.16-.52.24-.79Z"/>
    <path class="cls-7" d="m573.25,384.64c-.26.85-.53,1.69-.8,2.53-.48,1.46-.96,2.92-1.46,4.37.76-2.29,1.52-4.58,2.26-6.89Z"/>
    <path class="cls-5" d="m476.4,350.42c-6.32,5.78-4.93,18.1,3.39,21.53,9.36,6.04,22.8-4.35,19.52-14.91-1.15-10.37-16.48-14.29-22.91-6.63Z"/>
    <path class="cls-5" d="m476.4,350.42c-6.32,5.78-4.93,18.1,3.39,21.53,9.36,6.04,22.8-4.35,19.52-14.91-1.15-10.37-16.48-14.29-22.91-6.63Z"/>
    <polygon class="cls-5" points="329.83 543.89 329.83 543.89 320.42 535.69 329.83 543.89"/>
    <path class="cls-4" d="m438.77,208.61c3.38.79,6.77,1.5,10.17,2.17l-2.77,3.06-5.86-1.23c-1.35-.29-2.69-.58-4.02-.88l-17.49-.29-20.01-.79,1.75-2.46.33-.46c4.63.02,9.54.13,14.65.35l-.02.15c.04-.06.06-.1.1-.15,1.44.06,2.88.15,4.36.23l18.8.29Z"/>
    <path class="cls-4" d="m512.9,211.96l.26.03c-.38-2.5-.82-4.96-1.36-7.42-1.28-5.97-3.14-11.77-6.2-17.12-9.8-15.56-29.66-26.16-47.96-20.45-11.72,4.03-21.05,11.87-29.05,21.05-3.61,4.13-6.95,8.53-10.1,12.95l.73.03,18.35.31.74.18c1.37.31,2.76.61,4.15.91.69-.76,1.4-1.53,2.12-2.29,8.13-8.66,17.47-16.86,29.94-13.87,11.66,4.31,17.94,16.32,19.28,28.12,3.37,24.58,2.74,49.56.1,74.25l18.99,6.73c1.71-12.7,2.76-25.46,3.24-38.26.1-2.6.18-5.21.23-7.82t.03.01c-.19-20.23-3.5-37.31-3.5-37.31Z"/>
    <g>
      <path class="cls-6" d="m202.82,405.05c4.38,7.54,11.8,11.17,19.82,13.36,2.96.83,6,1.46,9,2l1.58,4.38,8.69,16.92c-4.08-.5-8.17-1.02-12.25-1.67-12.07-1.94-23.84-5.11-33.87-12.42-15.61-10.82-19.11-33.43-11.48-50.02,3.29-7.57,8.65-13.63,14.71-19.01.58-.29,1.21-.77,1.83-1.5.06-.1.15-.21.25-.29,5.02-4.25,10.48-8.09,15.63-11.96,0-.04-.02-.06-.02-.08.79-.5,1.58-1.02,2.38-1.54.79-.5,1.6-1.02,2.4-1.52,1.17-.73,2.33-1.46,3.54-2.21.63-.4,1.27-.77,1.92-1.17,2.61-1.6,5.31-3.21,8.13-4.88,0,.04.02.08.02.1,11.13-6.11,22.47-11.73,34.03-16.96,3.21-1.48,6.44-2.9,9.67-4.29l.31,1.65c1.15,6.21,2.25,11.77,3.27,16.57l.35,1.67c-2.23.92-4.44,1.88-6.63,2.83-22.28,9.92-43.33,22.61-62.65,37.49-9.88,7.15-16.84,20.94-10.65,32.55Z"/>
      <path class="cls-6" d="m611.42,370.06c-6.79-9.17-15.92-16.15-25.01-22.97-.58-.4-1.25-.83-1.96-1.29l-1.5-.96-1.21-.77-1.94-1.23-2-1.25-1.92-1.21-2.67-1.67c-1.13-.69-2.21-1.38-3.25-2,0,0-1.19-.75-1.48-.94-1.46-.92-2.79-1.73-3.83-2.35l-.44-.27h-.04l-.56-.35-1.02-.65-.12-.06c-1.48-.77-2.96-1.52-4.44-2.25-15.21-7.69-30.55-15.09-46.35-21.49-.88-.33-1.79-.65-2.71-.96-1.13-.4-2.25-.77-3.4-1.15-.35-.13-.69-.25-1.02-.35-.06-.02-.17-.04-.23-.08-4.36-1.42-8.61-2.73-11.77-3.71-.5-.15-.98-.29-1.42-.44-.69-.19-1.29-.38-1.81-.52-36.01-10.17-73.59-14.32-110.91-11.84-11.17,2.13-17.21-10.59-27.74-11.71-15.11-3.21-30.64,8.88-32.22,23.84-.17,1.6-.17,3.25,0,4.9.06,4.42,1.38,8.65,3.54,12.36,0,.02.02.02.02.02,5.71,9.65,17.4,15.84,28.78,13.25,12.21-1.23,18.9-12.36,23.59-22.4,62.36-5.02,125.44,9.75,179.69,40.51,2.15,1.21,4.27,2.44,6.38,3.69l18.42,12.4.21.15c.21.15.42.31.63.48.23.19.48.4.73.58.19.15.4.29.58.46.13.08.25.17.35.27.04.02.06.04.08.06l.02.02c.08.06.17.15.27.21.06.04.15.1.25.19.08.06.19.17.29.25l.58.5c.46.35.9.73,1.35,1.1.25.21.48.4.73.58.23.21.46.4.69.58,0,.02.02.02.02.02.12.13.25.25.38.35,1.06.92,2.08,1.88,3.08,2.86.04.04.1.1.15.15.6.58,1.19,1.19,1.75,1.79.04.06.08.1.12.15.46.5.92,1,1.35,1.52.04.06.1.15.17.19.38.48.73.94,1.1,1.4.04.06.06.12.1.17.38.5.73.98,1.06,1.46.04.06.08.15.13.21.33.5.67,1.02.96,1.52.04.08.08.12.1.19.1.19.19.35.29.52.58,1.02,1.06,2.1,1.5,3.19.06.19.15.35.21.54.12.31.23.65.33.96.06.23.12.44.19.63.19.73.35,1.44.48,2.17.06.44.15.85.19,1.29.02.21.06.42.08.65,0,.19,0,.38.02.58.02.52.06,1.02.06,1.56-.02.5-.04,1-.08,1.5v.1c-.04.5-.1,1.02-.19,1.56-.1.63-.23,1.23-.38,1.83-.02.1-.06.23-.08.35-.15.46-.27.94-.44,1.4-.02.1-.06.21-.1.31-.17.46-.35.94-.56,1.4-.02.06-.04.1-.06.17-.25.5-.48,1-.77,1.48-.06.15-.15.29-.23.42-.02.06-.06.1-.08.15-.42.67-.85,1.31-1.35,1.9-.17.23-.33.46-.5.67-.08.1-.19.21-.27.31-.29.33-.58.65-.9.96-.12.1-.23.23-.35.33-.31.29-.6.56-.92.85-.15.1-.27.21-.42.33-.29.25-.63.48-.94.73-.17.12-.31.25-.48.33-.31.25-.63.46-.98.67-.17.13-.33.23-.48.33-.35.21-.69.42-1.04.6-.19.1-.33.21-.52.29-.38.21-.73.4-1.13.58-.15.08-.31.17-.48.25-.54.25-1.08.5-1.65.75-.06.02-.1.04-.17.06-.44.17-.88.35-1.33.52-.71.29-1.44.52-2.17.77l-10.55,2.61c-.48.08-.94.17-1.42.25-.02.04-.02.06-.04.1l-.27.06-10.17,21.11c.52-.06,1.04-.1,1.58-.17,16.48-1.96,33.34-4.75,46.54-15.38,16.63-13.32,17.21-39.51,5.31-56.1Zm-258.63-53.33c-.44.29-.9.54-1.35.77-.04.04-.08.06-.12.08-.13.06-.27.12-.4.17-.13.06-.25.13-.38.19-.04,0-.08.02-.13.04-2.56,1.02-5.42,1.15-8.09-.17-.15-.06-.25-.13-.4-.21-.13-.06-.27-.15-.42-.23-.06-.02-.1-.02-.17-.04-.35-.06-.67-.17-.98-.27-.19-.04-.35-.15-.54-.19-.23-.1-.5-.19-.73-.31h-.02c-.17-.08-.33-.17-.52-.27-.02,0-.06-.04-.08-.04h-.02c-.19-.1-.4-.23-.58-.35-.1-.04-.21-.08-.29-.15-.04-.02-.06-.04-.08-.06-.08-.06-.15-.12-.23-.19-.02,0-.06-.04-.1-.06-.06-.02-.1-.08-.17-.12-.25-.19-.48-.4-.71-.58-.06-.04-.1-.1-.15-.15-.08-.04-.15-.12-.21-.19-.31-.31-.6-.65-.88-.98-.1-.1-.17-.19-.25-.31-.29-.4-.58-.81-.81-1.25-.02-.02-.06-.04-.06-.08,0-.02-.02-.06-.04-.08-.21-.4-.4-.79-.58-1.21-.04-.13-.1-.25-.15-.38-.19-.46-.35-.94-.46-1.42-.02-.06-.04-.15-.04-.21-.1-.42-.19-.85-.25-1.29-.04-.15-.04-.31-.08-.48-.04-.46-.08-.92-.08-1.38v-.35c0-.42.02-.83.06-1.25v-.02c.02-.15.02-.33.04-.48.06-.46.13-.92.23-1.38,0-.04,0-.08.02-.1.06-.33.17-.67.27-1,.29-1,.69-1.96,1.21-2.88.25-.44.54-.88.85-1.29.17-.21.31-.42.48-.6l.52-.58c1.46-1.48,3.31-2.63,5.59-3.17,2.67-.94,5.63-.92,8.34-.15.48.15.96.31,1.42.48,3.38,1.35,6.19,3.94,7.25,7.46.31,1,.48,2.08.46,3.23,1.08,5.13-1.88,10.61-6.19,13.48Z"/>
    </g>
    <path class="cls-5" d="m369.61,467.46c18.6-3.9,7.83-34.35-8.89-25.3-15.37,5.2-6.67,30.34,8.89,25.3Z"/>
    <path class="cls-5" d="m479.79,371.95c9.36,6.04,22.8-4.35,19.52-14.91-1.15-10.37-16.48-14.29-22.91-6.63-6.32,5.78-4.93,18.1,3.39,21.53Z"/>
    <path class="cls-5" d="m399.14,500.63s-.02-.01-.03-.02c-.64.55-1.28,1.08-1.92,1.62.66-.54,1.32-1.08,1.95-1.6Z"/>
    <path class="cls-2" d="m318.44,301.43c-.17,1.6-.17,3.25,0,4.9.06,4.42,1.38,8.65,3.54,12.36-1.33-5.69-2.52-11.46-3.54-17.26Z"/>
    <path class="cls-2" d="m384.87,474.57c13.12-11.23,11.12-34.5-3.78-43.27-7.31-6.2-19.75-.82-25.14-9.52-34.41-49.9-52.04-110.41-52.54-170.85-.01-1.2-.03-2.38-.03-3.58.01-1.43.01-2.86.03-4.29.06-.01.13-.04.19-.06.06-1.04.13-2.07.19-3.11.07-1.18.15-2.36.23-3.53.04-.67.09-1.34.15-2.01.2-2.69.42-5.27.63-7.64.03-.42.06-.83.1-1.24.16-1.75.32-3.37.45-4.79.19-1.58.32-2.51.32-2.51l.1-.04c1.24-13.01,5.85-27.2,19.4-31.91,12.26-2.77,21.75,4.93,29.85,13.43.92.96,1.82,1.94,2.7,2.91,4.67-.55,12.88-1.36,23.45-1.8-.04-.07-.1-.16-.16-.23-9.88-13.45-21.18-26.37-36.93-32.72-19.49-7.55-42.44,3.93-51.45,21.99-4.1,8.93-5.49,18.61-6.69,28.28-.03.28-.07.67-.13,1.15-.01.16-.03.32-.06.5,0,.03,0,.04-.01.07-.01.13-.03.28-.04.42v.04c-.01.16-.03.34-.06.51-.12,1.18-.28,2.67-.44,4.39v.1c-.04.36-.07.73-.12,1.12-.07.77-.15,1.59-.22,2.44-.04.53-.09,1.07-.13,1.61-.01.15-.01.31-.03.45l-.1,1.21c-.04.76-.1,1.55-.16,2.35-.06.83-.12,1.71-.18,2.61l-.13,2.22c-.01.16-.01.31-.03.45-.01.28-.03.55-.04.83h0c-.01.28-.03.53-.03.79-.01.15-.01.31-.03.45-.06,1.09-.1,2.22-.13,3.36,0,.1-.01.2-.01.31,0,0-.03.77-.04.98v.2c-.03.66-.04,1.33-.06,1.99v.19c-.03,1.08-.04,2.1-.06,3.12v.04c.23,16.29,1.4,32.58,3.94,48.69.38,2.47.8,4.92,1.26,7.37-.09.04-.16.07-.25.1.23,1.3.48,2.6.72,3.91,1.01,5.49,2.1,11.11,3.21,16.23.01-.01.04-.01.06-.03.6,2.38,1.21,4.74,1.87,7.11,10,36.63,26.12,71.56,48.07,102.57-2.96,9.2-6.93,19.72-1.27,28.8,7.47,16.01,31.08,20.64,43.56,7.81Zm-24.15-32.41c16.72-9.05,27.49,21.4,8.89,25.3-15.56,5.04-24.26-20.1-8.89-25.3Z"/>
    <path class="cls-4" d="m396.81,502.54c.13-.11.26-.21.39-.32.64-.54,1.28-1.07,1.92-1.62,0,0,0,0,0,0-.76.65-1.53,1.3-2.31,1.94Z"/>
    <path class="cls-2" d="m437.73,540.56c1.19.71,2.4,1.42,3.61,2.13l15.53,8.32-19.13-10.44Z"/>
    <g>
      <path class="cls-8" d="m483.77,218.09c-8.75-2.27-17.65-3.96-26.53-5.67-2.77-.54-5.52-1.08-8.29-1.65-3.4-.67-6.79-1.38-10.17-2.17l-18.8-.29c-1.48-.08-2.92-.17-4.36-.23-.04.04-.06.08-.1.15l.02-.15c-5.11-.23-10.02-.33-14.65-.35-4.42-.02-8.61.04-12.5.15.04.06.1.15.15.23-.04-.08-.1-.15-.17-.23-13.78.4-23.99,1.46-28.72,2.02-.85.19-1.69.35-2.52.52-2.79.58-5.59,1.15-8.38,1.69-3.65.71-7.29,1.4-10.94,2.1-7.59,1.42-15.15,2.9-22.67,4.59l-.42,4.29-.19.08-.27,2.96c-.04.42-.08.75-.08,1.08-.23,2.46-.44,5.02-.63,7.67-.08.71-.1,1.31-.15,1.94-.1,1.21-.17,2.35-.25,3.52l-.02.4c9.52-2.77,19.17-5.09,28.93-6.9,47.39-8.94,96.72-6.98,143.43,4.98-.27-7.15-.85-14.05-1.71-20.74Z"/>
      <g>
        <path class="cls-8" d="m562.46,332.08c-1.47-.76-2.96-1.5-4.44-2.25l-.03.25,4.58,2.07s-.09-.06-.12-.07Z"/>
        <path class="cls-8" d="m563.62,332.8l.55.35h.03c-.2-.13-.39-.25-.58-.35Z"/>
        <path class="cls-8" d="m577.81,341.59l5.14,3.26c-1.58-1.02-3.33-2.13-5.14-3.26Z"/>
        <path class="cls-8" d="m586.45,321.34h.02c-.63,5.27-1.33,10.52-2.1,15.78-1.46-.94-3.02-1.92-4.58-2.9-.69-.44-1.4-.88-2.08-1.31-1.35-.83-2.69-1.67-3.92-2.42-.48-.31-.94-.58-1.38-.85-1.54-.96-2.9-1.79-3.94-2.44-.29-.19-.56-.35-.81-.5-.25-.15-.46-.27-.65-.4-.19-.1-.33-.21-.46-.27-.17-.1-.27-.19-.29-.19l-.23-.15-.17-.06c.58-5.04,1.08-10.13,1.5-15.19.92-11.67,1.35-23.38,1.13-35.12-9.46-5.38-19.03-10.55-28.76-15.36-4.27-2.1-8.54-4.15-12.86-6.11l-.04-4.67c-.06-6.04-.38-11.8-.79-16.94,7.73,3,15.32,6.34,22.8,9.9,9.96,4.75,19.74,9.92,29.34,15.38,3.23,2.63,8.84,3.98,9.48,8.71,2,18.36.94,36.8-1.21,55.1Z"/>
        <path class="cls-8" d="m285.14,225.82c0,.19-.02.35-.04.56-.02.21-.04.42-.06.63l.1-1.19Z"/>
        <path class="cls-8" d="m274.15,232.28l-.29,4.17-.13,2.1c0,.1-.15,2.69-.15,2.69-.04,1.15-.1,2.33-.12,3.52l-.02.33-.04,1.33c-.04.65-.04,1.29-.06,1.98v.25c-.02,1.02-.04,1.98-.06,3.13v.35c0,.52.02,1.02.04,1.54-2.04.88-4.06,1.81-6.06,2.75-12.34,5.77-24.32,12.32-36.26,18.88-.06,14,.67,27.97,2.1,41.89h-.02c.29,2.79.63,5.61.96,8.4l-2.65,1.54c-5.88,3.46-11.17,6.69-15.82,9.67-.52-3.69-1.02-7.38-1.5-11.07-2.52-20.22-3.9-40.62-1.54-60.88,13.15-10.32,27.97-18.24,43.31-25.03,6.06-2.67,12.19-5.19,18.32-7.57Z"/>
        <path class="cls-8" d="m224.16,375.88c3.67,12.92,8.34,25.51,12.92,38.1.96,2.63,1.92,5.27,2.88,7.92l10.71,20.88c1.54,2.65,3.11,5.31,4.69,7.94.77,1.29,1.52,2.58,2.31,3.86,2.17,3.63,4.38,7.23,6.63,10.8l13.05,20.17c2.48,3.19,4.98,6.36,7.52,9.48,6.75,8.29,13.73,16.38,20.99,24.26.65.71,1.29,1.4,1.94,2.08l18.96-9.17c-40.91-40.58-70.21-92.43-85.22-148.03-5.86,3.81-11.63,7.79-17.38,11.71Z"/>
        <path class="cls-8" d="m434.08,544.92c-10.67,8.04-21.72,15.73-34.1,20.36-.54.19-1.06.42-1.6.6-12-6.31-23.28-13.86-34.1-22.01-1.5-1.13-2.98-2.27-4.46-3.44h-.02c-5.48,2.92-13.17,6.98-19.55,10.32,3.5,2.81,7.07,5.54,10.67,8.23,12.48,9.25,25.59,17.71,39.33,25.03,2.94,1.71,6.36,3.04,9.73,3.19v-.02c2.38.1,4.71-.42,6.86-1.81,17.26-8.84,33.45-19.69,48.73-31.68,1.13-.9,2.25-1.77,3.38-2.69l-19.13-10.44c-1.9,1.46-3.81,2.92-5.73,4.36Z"/>
        <polygon class="cls-8" points="570.33 415.35 570.35 415.34 570.33 415.34 570.33 415.35"/>
        <polygon class="cls-8" points="570.61 414.58 570.62 414.56 570.61 414.56 570.61 414.58"/>
        <path class="cls-8" d="m554.07,350.08c2.15,1.2,4.26,2.42,6.38,3.69l-6.25-4.2-.13.51Z"/>
        <path class="cls-8" d="m579.15,366.37c.19.15.38.29.56.42-.22-.18-.42-.34-.63-.5.01.03.04.06.07.07Z"/>
        <path class="cls-8" d="m584.21,370.43c.25.2.48.39.73.6v-.04s-2.07-1.66-2.07-1.66c.45.36.89.73,1.34,1.11Z"/>
        <path class="cls-8" d="m570.36,369.23l-11.59-7.79c-1.5,6.13-3.21,12.23-5.11,18.26-15.63,49.85-43.58,95.83-80.65,132.63,6.42,3.31,12.84,6.27,19.24,8.88,6.98-7.13,13.38-14.8,19.74-22.47,1.04-1.25,2.08-2.5,3.13-3.75.77-.94,1.56-1.85,2.33-2.77,1.81-2.19,3.65-4.36,5.5-6.5l13.71-20.57c1.46-3.29,3.13-6.44,4.92-9.54.48-.85.98-1.71,1.48-2.56.48-.81.96-1.6,1.44-2.4.73-1.23,1.48-2.46,2.23-3.71.83-1.38,1.67-2.77,2.5-4.19l10.96-21.01v-.02s.04-.08.06-.13c.15-.38.29-.77.44-1.15v-.06c.08-.19.15-.38.23-.56.73-1.94,1.44-3.87,2.14-5.83h.24v-.65s0-.01,0-.02c.04-.17.1-.31.17-.48.1-.25.19-.5.27-.75.83-2.27,1.65-4.54,2.48-6.84.81-2.27,1.6-4.54,2.4-6.84.81-2.29,1.58-4.58,2.35-6.88.75-2.29,1.52-4.58,2.27-6.9.92-2.9,1.85-5.81,2.73-8.73.08-.27.17-.52.25-.79.15-.48.29-.94.42-1.42-.73-.58-1.4-1.1-2.06-1.63l-4.23-2.83Z"/>
      </g>
    </g>
    <path class="cls-2" d="m550.3,517.97c.15,21.18-20.25,37.24-40.32,37.9-15.05.89-28.91-5.93-42.23-11.96l-19.08-10.22c-1.43-.83-2.85-1.68-4.25-2.53-10.18-6.13-19.99-12.76-29.71-19.55-1.91-1.34-3.83-2.7-5.72-4.04-1.23-.88-2.47-1.74-3.69-2.61l11.61-9.99.58.18,3.08-3.05c.22-.22.44-.44.66-.66,3.43,2.66,6.92,5.26,10.47,7.77,20.63,14.66,42.89,27.05,66.75,35.52,11.47,3.66,26.88-.61,30.95-13.01,2.01-7.68.48-15.24-1.85-22.64-.57-1.8-1.18-3.58-1.81-5.36.92-1.09,1.84-2.18,2.76-3.24l.31-.35,10.76-16.15c1.52,4.2,3.18,8.39,4.74,12.6,3.74,10.1,6.89,20.37,6.01,31.39Z"/>
    <path class="cls-4" d="m399.15,500.62c7.34-6.05,12.71-10.79,16.02-13.79l-16.02,13.79Z"/>
    <path class="cls-8" d="m282.43,486.96c-.88-1.08-1.73-2.19-2.56-3.27l-20.84-32.18-1.35,3.06c2.17,3.63,4.38,7.23,6.63,10.8l13.05,20.17c2.48,3.19,4.98,6.36,7.52,9.48l1.29-3.46-3.73-4.61Z"/>
    <path class="cls-4" d="m499.54,335.86c-13.9-8.7-33.74-.96-39.27,14.09-5.47,11.28,1.65,22.73,6.66,32.63-24.77,51.65-64.44,95.39-112.53,126.26-4.09,2.61-8.22,5.14-12.42,7.56l-33.59,16.25c-.85.28-1.71.54-2.58.8-.88.25-1.77.5-2.66.73-.18.04-.36.09-.55.13-.7.18-1.42.35-2.13.5-1.34.29-2.69.53-4.03.69-7.61.96-15.07-.16-21.08-6.09-2.12-2.37-3.55-4.92-4.45-7.58-.58-1.78-.95-3.61-1.11-5.46-.04-.47-.07-.93-.09-1.4-.04-.95-.03-1.88.03-2.85.01-.47.06-.95.1-1.43.09-.95.22-1.91.38-2.88.32-1.91.76-3.85,1.3-5.77.23-.86.48-1.72.76-2.57.03-.1.06-.2.09-.31.61-1.93,1.28-3.82,1.97-5.68-.93-1.15-1.84-2.32-2.74-3.49l-.19-.23-10.64-16.44c-2.76,6.23-5.49,12.56-7.59,19.02-2.69,8.22-4.35,16.69-3.77,25.5.34,21.05,20.32,37.88,40.66,38.47,9.74.42,18.83-2.55,27.69-6.25,2.28-.95,4.54-1.94,6.8-2.95,2.32-1.02,33.37-17.47,33.37-17.47,2.18-1.34,4.34-2.7,6.5-4.07,9.53-6.03,18.92-12.35,27.78-19.33.36-.29.72-.57,1.07-.86.62-.5,1.2-.97,1.81-1.45-.95.77-1.9,1.56-2.87,2.32,1.27-1.02,2.49-2,3.67-2.96.31-.25.64-.51.94-.75.13-.11.26-.22.39-.32-.13.11-.26.21-.39.32.77-.64,1.54-1.28,2.3-1.94,0,0,0,0,0,0h0s.01.01.03.01l16.02-13.79h0s.26.07.26.07c1.25-1.23,2.48-2.49,3.73-3.74,2.36-2.41,4.7-4.83,6.99-7.3,22.55-24.09,42.04-51.05,56.57-80.7,2.12-7.27,10.31-8,16.01-11.28,19.52-7.55,19.14-39.2.8-48.02Zm-19.75,36.09c-8.32-3.43-9.71-15.75-3.39-21.53,6.42-7.66,21.75-3.74,22.91,6.63,3.28,10.55-10.16,20.95-19.52,14.91Z"/>
  </g>
</svg>
